<?xml version="1.0" encoding="UTF-8"?>
<svg xmlns="http://www.w3.org/2000/svg" width="512" height="512" viewBox="0 0 128 128"><g><path d="M120.486,108.288h-7.715V47.5a1.75,1.75,0,0,0-1.75-1.75H99.132V32.038l6.407-3.923a1.751,1.751,0,0,0,0-2.986L64.914.254a1.757,1.757,0,0,0-1.828,0L22.461,25.129a1.751,1.751,0,0,0,0,2.986L39.274,38.409V45.75h-22.3a1.751,1.751,0,0,0-1.75,1.75v60.788H7.513a1.75,1.75,0,0,0-1.75,1.75v7.955a10.016,10.016,0,0,0,10,10h96.465a10.015,10.015,0,0,0,10-10v-7.955A1.749,1.749,0,0,0,120.486,108.288ZM95.632,45.75H88.726V38.41l6.906-4.229ZM64,3.8l37.273,22.823L64,49.445,26.726,26.622ZM63.086,52.99a1.754,1.754,0,0,0,1.828,0L85.226,40.553V64.446C82.5,65.819,73.824,69.757,64,69.757c-9.8,0-18.495-3.941-21.226-5.312V40.553ZM18.728,49.25H39.274V65.5a1.75,1.75,0,0,0,.884,1.521A53.248,53.248,0,0,0,64,73.257a53.248,53.248,0,0,0,23.842-6.234,1.75,1.75,0,0,0,.884-1.521V49.25h6.906V61.125a1.75,1.75,0,0,0,3.5,0V49.25h10.139v59.038H18.728Zm28.6,62.538H80.674v4a.609.609,0,0,1-.609.609H47.935a.609.609,0,0,1-.608-.609Zm71.409,6.2a6.511,6.511,0,0,1-6.5,6.5H15.767a6.511,6.511,0,0,1-6.5-6.5v-6.2H43.827v4a4.113,4.113,0,0,0,4.108,4.109h32.13a4.114,4.114,0,0,0,4.109-4.109v-4h34.562Z"/><path d="M63.086,43.609a1.748,1.748,0,0,0,1.828,0l25.3-15.494a1.751,1.751,0,0,0,0-2.986L64.914,9.635a1.752,1.752,0,0,0-1.828,0l-25.3,15.494a1.751,1.751,0,0,0,0,2.986ZM64,13.18,85.953,26.622,64,40.065,42.046,26.622Z"/></g></svg>
